# xmcd
# 
# Track frame offsets:
#     183
#     18428
#     34930
#     51990
#     66675
#     76645
#     102035
#     115633
#     133275
#     148068
#     163970
#     188113
#     204803
#     221878
# 
# Disc length: 3177
# 
# Revision: 8
# Processed by: cddbd v1.5.2PL0 Copyright (c) Steve Scherf et al.
# Submitted via: fre:ac v1.1beta1pre5
# 
DISCID=cf0c670e
DTITLE=Carole Laure - Western Shadows
DYEAR=1989
DGENRE=Chanson
TTITLE0=Stand By Your Man
TTITLE1=Anybody with the Blues
TTITLE2=Danse avant de tomber
TTITLE3=Seven Year Ache
TTITLE4=Quand le soleil dit bonjour aux montagnes
TTITLE5=To Know Him Is To Love Him
TTITLE6=Baby You're Something
TTITLE7=Someone Like You
TTITLE8=Baby Lay Down
TTITLE9=One of These Days
TTITLE10=Sorry
TTITLE11=Y'a qu'celle
TTITLE12=Save the Last Dance For Me
TTITLE13=Coming Back to You
EXTD=YEAR: 1989
EXTT0=
EXTT1=
EXTT2=
EXTT3=
EXTT4=
EXTT5=
EXTT6=
EXTT7=
EXTT8=
EXTT9=
EXTT10=
EXTT11=
EXTT12=
EXTT13=
PLAYORDER=
